<?xml version="1.0" encoding="utf-8"?>
<!-- Generator: Adobe Illustrator 16.0.0, SVG Export Plug-In . SVG Version: 6.00 Build 0)  -->
<!DOCTYPE svg PUBLIC "-//W3C//DTD SVG 1.1//EN" "http://www.w3.org/Graphics/SVG/1.1/DTD/svg11.dtd">
<svg version="1.1" id="Layer_1" xmlns="http://www.w3.org/2000/svg" xmlns:xlink="http://www.w3.org/1999/xlink" x="0px" y="0px"
	 width="612px" height="792px" viewBox="0 0 612 792" enable-background="new 0 0 612 792" xml:space="preserve">
<g>
	<path fill="#DDDDDD" d="M482.104,787.518c0,0-0.269-0.098-0.797-0.292c-0.526-0.195-1.325-0.474-2.337-0.88
		c-2.025-0.812-5.104-1.949-8.923-3.607c-7.786-3.186-18.867-8.16-32.498-14.912c-13.627-6.755-29.771-15.316-47.659-25.7
		c-17.892-10.38-37.525-22.582-58.224-36.536c-20.702-13.951-42.468-29.654-64.715-46.953
		c-22.251-17.296-44.985-36.188-67.721-56.426c-22.74-20.235-45.483-41.819-67.858-64.405c-5.548-5.688-11.161-11.36-16.711-17.119
		c-2.743-2.908-5.489-5.821-8.24-8.737c-2.739-2.962-5.481-5.928-8.226-8.896c-2.508-2.685-5.11-5.425-7.86-8.477l-4.388-4.833
		c-1.528-1.691-3.224-3.593-5.051-5.683c-1.824-2.088-3.887-4.496-6.288-7.46c-2.408-2.992-5.187-6.524-8.642-11.577
		c-0.801-1.159-1.816-2.724-2.717-4.136c-0.435-0.676-0.976-1.563-1.476-2.39l-1.498-2.525l-1.629-2.922l-0.793-1.473l-0.858-1.667
		c-0.573-1.132-1.133-2.271-1.679-3.416c-0.584-1.242-1.19-2.596-1.755-3.901l-0.841-1.984l-0.89-2.248
		c-0.588-1.531-1.123-2.962-1.683-4.602c-0.573-1.695-1.115-3.404-1.623-5.12c-0.249-0.828-0.507-1.758-0.761-2.72l-0.721-2.846
		c-1.855-7.646-3.117-16.449-3.226-25.577c-0.139-9.066,0.853-18.102,2.575-26.121c1.701-7.888,3.981-14.664,6.329-20.424
		c0.56-1.355,1.123-2.652,1.713-3.968l0.89-1.943l0.829-1.712c0.557-1.133,1.137-2.282,1.712-3.382l1.599-2.935l0.82-1.456
		l0.75-1.279l1.514-2.508l1.411-2.227l1.393-2.126c3.53-5.244,6.38-8.894,8.84-11.973c2.471-3.073,4.504-5.44,6.382-7.603
		c1.877-2.158,3.555-4.036,5.109-5.76l4.421-4.873c2.643-2.822,5.283-5.642,7.921-8.459c2.753-2.979,5.504-5.956,8.251-8.929
		c2.757-2.91,5.51-5.817,8.26-8.719c5.599-5.716,11.181-11.414,16.741-17.09c22.433-22.534,45.221-44.074,67.996-64.275
		c22.771-20.205,45.528-39.07,67.794-56.348c22.262-17.281,44.033-32.974,64.733-46.919c20.697-13.949,40.323-26.152,58.202-36.537
		c17.876-10.388,34.004-18.958,47.615-25.721c13.612-6.763,24.683-11.741,32.453-14.938c3.813-1.663,6.887-2.802,8.907-3.616
		c1.01-0.408,1.808-0.687,2.333-0.883c0.527-0.194,0.795-0.293,0.795-0.293l8.578,7.659c0,0-2.603,3.081-7.482,8.858
		c-4.896,5.763-11.995,14.287-21.207,24.979c-9.183,10.718-20.333,23.732-33.123,38.661c-6.396,7.464-13.2,15.407-20.374,23.78
		c-7.234,8.319-14.841,17.066-22.778,26.194c-15.885,18.245-33.095,38.011-51.297,58.917c-9.101,10.453-18.45,21.191-28.006,32.167
		c-9.614,10.924-19.437,22.084-29.426,33.434c-20.006,22.673-40.607,46.166-61.748,69.854c-10.524,11.876-21.231,23.793-31.8,35.855
		c-5.362,6.058-10.866,12.056-15.905,17.896c-2.495,2.904-4.875,5.813-6.593,8.389c-0.85,1.273-1.473,2.435-1.82,3.269
		c-0.153,0.401-0.244,0.717-0.298,0.934c-0.033,0.207-0.037,0.323-0.039,0.435c0.016,0.198,0.035,0.594,0.421,1.493
		c0.361,0.864,1.034,2.061,1.916,3.353c1.761,2.602,4.158,5.513,6.661,8.421c5.059,5.848,10.56,11.848,15.92,17.908
		c10.578,12.066,21.262,23.994,31.782,35.878c21.121,23.704,41.719,47.199,61.701,69.895c9.982,11.354,19.799,22.521,29.407,33.449
		c9.547,10.983,18.887,21.729,27.979,32.189c18.185,20.922,35.378,40.701,51.248,58.96c7.932,9.133,15.532,17.885,22.762,26.209
		c7.166,8.379,13.965,16.328,20.354,23.798c12.776,14.939,23.916,27.964,33.089,38.69c9.202,10.7,16.296,19.229,21.186,24.997
		c4.875,5.781,7.475,8.865,7.475,8.865L482.104,787.518z"/>
</g>
</svg>
