<?xml version="1.0" encoding="utf-8"?>
<!-- Generator: Adobe Illustrator 16.0.0, SVG Export Plug-In . SVG Version: 6.00 Build 0)  -->
<!DOCTYPE svg PUBLIC "-//W3C//DTD SVG 1.1//EN" "http://www.w3.org/Graphics/SVG/1.1/DTD/svg11.dtd">
<svg version="1.1" id="Layer_1" xmlns="http://www.w3.org/2000/svg" xmlns:xlink="http://www.w3.org/1999/xlink" x="0px" y="0px"
	 width="612px" height="792px" viewBox="0 0 612 792" enable-background="new 0 0 612 792" xml:space="preserve">
<g>
	<path fill="#DDDDDD" d="M482.291,787.352c0.001,0-3.807-2.008-10.737-5.955c-1.737-0.983-3.677-2.081-5.813-3.29
		c-2.1-1.239-4.392-2.593-6.869-4.056c-2.478-1.462-5.14-3.034-7.98-4.711c-2.855-1.663-5.841-3.475-8.977-5.404
		c-6.318-3.82-13.195-8.153-20.701-12.854c-7.429-4.771-15.519-9.88-23.981-15.5c-8.539-5.553-17.458-11.61-26.896-17.967
		c-4.672-3.219-9.464-6.521-14.369-9.901c-2.45-1.692-4.928-3.405-7.434-5.137c-2.479-1.755-4.984-3.529-7.517-5.322
		c-20.353-14.263-41.905-30.156-64.498-47.147c-11.21-8.572-22.774-17.335-34.428-26.44c-5.835-4.546-11.778-9.1-17.696-13.771
		c-5.92-4.67-11.897-9.385-17.925-14.138c-6.019-4.762-11.943-9.691-17.99-14.586c-6.063-4.88-12.018-9.932-17.996-15.024
		c-11.938-10.202-23.663-20.848-35.148-31.876c-2.9-2.73-5.726-5.539-8.567-8.343l-4.267-4.208l-4.211-4.27
		c-2.791-2.866-5.643-5.686-8.394-8.601l-1.038-1.089l-0.259-0.271c0.441,0.507-0.893-0.995-0.849-0.942l-0.51-0.553l-1.969-2.127
		l-3.64-3.875c-2.545-2.672-5.1-5.469-7.897-8.473l-4.41-4.784c-1.532-1.671-3.226-3.545-5.043-5.599
		c-1.803-2.063-3.83-4.437-6.18-7.34c-2.357-2.933-5.067-6.382-8.419-11.289c-0.779-1.127-1.761-2.643-2.633-4.012
		c-0.422-0.656-0.945-1.514-1.429-2.314l-1.449-2.444l-1.573-2.824l-0.767-1.423l-0.828-1.609c-0.553-1.093-1.093-2.192-1.62-3.298
		c-0.563-1.198-1.146-2.503-1.691-3.763l-0.811-1.912l-0.857-2.167c-0.566-1.475-1.081-2.854-1.62-4.433
		c-0.552-1.632-1.073-3.276-1.562-4.929c-0.239-0.797-0.488-1.692-0.731-2.617l-0.693-2.738c-1.781-7.355-3.002-15.819-3.11-24.596
		c-0.137-8.716,0.813-17.404,2.464-25.12c1.633-7.59,3.824-14.116,6.083-19.67c0.539-1.307,1.081-2.558,1.649-3.828l0.856-1.875
		l0.799-1.653c0.537-1.094,1.096-2.204,1.65-3.267l1.543-2.838l0.792-1.408l0.725-1.238l1.463-2.43l1.365-2.16l1.349-2.064
		c3.42-5.094,6.193-8.663,8.596-11.682c2.409-3.017,4.434-5.33,6.292-7.461c1.862-2.123,3.534-3.977,5.088-5.683l4.43-4.833
		c2.777-3.042,5.418-5.772,7.937-8.474c2.766-2.966,5.528-5.93,8.287-8.89c2.807-2.866,5.61-5.728,8.409-8.586
		c2.845-2.817,5.687-5.629,8.522-8.437c2.83-2.813,5.756-5.532,8.622-8.293c11.558-10.962,23.403-21.498,35.401-31.645
		c5.966-5.103,12.082-10.008,18.107-14.92c3.016-2.454,6.02-4.899,9.013-7.335c3.037-2.396,6.061-4.784,9.073-7.162
		c24.069-19.045,47.662-37.166,70.162-54.234c11.342-8.452,22.309-16.732,33.139-24.543c5.405-3.915,10.65-7.823,15.923-11.55
		c5.256-3.742,10.413-7.414,15.465-11.01c20.325-14.281,39.124-27.222,56.133-38.384c16.972-11.194,31.962-20.781,44.518-28.487
		c3.111-1.951,6.111-3.748,8.938-5.437c2.822-1.692,5.467-3.278,7.929-4.754c2.461-1.476,4.738-2.842,6.825-4.093
		c2.123-1.219,4.052-2.325,5.779-3.316c6.882-3.99,10.658-6.022,10.658-6.022l8.205,7.326c0,0-42.36,48.655-105.9,121.637
		c-31.78,36.482-68.858,79.044-108.583,124.647c-19.899,22.769-40.353,46.394-61.406,70.159
		c-10.479,11.917-21.124,23.888-31.659,35.981c-5.34,6.073-10.822,12.085-15.854,17.956c-2.491,2.92-4.873,5.847-6.604,8.467
		c-0.856,1.296-1.493,2.489-1.853,3.373c-0.16,0.427-0.258,0.773-0.316,1.025c-0.038,0.243-0.042,0.398-0.041,0.55
		c0.026,0.277,0.066,0.741,0.473,1.681c0.382,0.906,1.073,2.125,1.966,3.431c1.786,2.631,4.195,5.547,6.706,8.458
		c5.074,5.853,10.579,11.843,15.945,17.896c10.591,12.055,21.296,23.964,31.831,35.834c5.278,5.928,10.535,11.833,15.765,17.708
		c2.616,2.938,5.224,5.868,7.826,8.791c2.579,2.942,5.15,5.876,7.715,8.802c10.255,11.702,20.386,23.263,30.351,34.634
		c19.917,22.752,39.238,44.686,57.372,65.653c18.176,20.928,35.361,40.715,51.225,58.979c15.799,18.322,30.282,35.116,43.119,50.003
		c6.414,7.447,12.416,14.418,17.966,20.863c5.521,6.471,10.592,12.415,15.172,17.784c18.321,21.475,28.79,33.746,28.79,33.746
		L482.291,787.352z"/>
</g>
</svg>
